<?xml version="1.0" encoding="UTF-8"?>
<svg xmlns="http://www.w3.org/2000/svg" xmlns:xlink="http://www.w3.org/1999/xlink" width="854" height="480" viewBox="0 0 854 480">
<defs>
<g>
<g id="glyph-0-0">
<path d="M 3.472656 -1.667969 L 2.898438 -1.667969 L 2.898438 0 L 2.273438 0 L 2.273438 -1.667969 L 0.128906 -1.667969 L 0.128906 -2.351562 L 2.296875 -4.847656 L 2.898438 -4.847656 L 2.898438 -2.1875 L 3.472656 -2.1875 L 3.472656 -1.667969 M 2.273438 -2.1875 L 2.273438 -4.082031 L 0.636719 -2.1875 Z "/>
</g>
<g id="glyph-0-1">
<path d="M 5.0625 -2.851562 C 5.351562 -2.535156 5.601562 -2.296875 5.808594 -2.132812 C 6.019531 -1.96875 6.21875 -1.847656 6.40625 -1.765625 L 6.40625 -1.621094 C 6.191406 -1.515625 5.984375 -1.382812 5.78125 -1.222656 C 5.578125 -1.0625 5.339844 -0.824219 5.058594 -0.511719 L 4.808594 -0.511719 C 5.011719 -0.945312 5.226562 -1.28125 5.449219 -1.515625 L 0.257812 -1.515625 L 0.257812 -1.84375 L 5.449219 -1.84375 C 5.285156 -2.054688 5.167969 -2.210938 5.105469 -2.3125 C 5.039062 -2.417969 4.941406 -2.59375 4.8125 -2.851562 Z "/>
</g>
<g id="glyph-0-2">
</g>
<g id="glyph-0-3">
<path d="M 3.289062 -1.542969 C 3.289062 -1.308594 3.253906 -1.089844 3.179688 -0.890625 C 3.105469 -0.691406 3 -0.519531 2.863281 -0.375 C 2.726562 -0.226562 2.558594 -0.109375 2.355469 -0.0273438 C 2.152344 0.0585938 1.925781 0.101562 1.671875 0.101562 C 1.441406 0.101562 1.210938 0.0742188 0.988281 0.0234375 C 0.761719 -0.0273438 0.570312 -0.09375 0.402344 -0.175781 L 0.402344 -0.863281 L 0.449219 -0.863281 C 0.5 -0.824219 0.570312 -0.785156 0.664062 -0.738281 C 0.757812 -0.691406 0.859375 -0.648438 0.972656 -0.605469 C 1.101562 -0.558594 1.21875 -0.523438 1.324219 -0.5 C 1.429688 -0.476562 1.550781 -0.460938 1.683594 -0.460938 C 1.8125 -0.460938 1.941406 -0.484375 2.0625 -0.53125 C 2.1875 -0.578125 2.292969 -0.652344 2.382812 -0.757812 C 2.464844 -0.855469 2.523438 -0.964844 2.566406 -1.09375 C 2.609375 -1.222656 2.628906 -1.371094 2.628906 -1.546875 C 2.628906 -1.71875 2.605469 -1.859375 2.558594 -1.96875 C 2.511719 -2.078125 2.445312 -2.171875 2.355469 -2.242188 C 2.261719 -2.324219 2.148438 -2.382812 2.011719 -2.417969 C 1.878906 -2.449219 1.726562 -2.46875 1.558594 -2.46875 C 1.382812 -2.46875 1.207031 -2.453125 1.027344 -2.425781 C 0.851562 -2.398438 0.707031 -2.375 0.601562 -2.351562 L 0.601562 -4.847656 L 3.261719 -4.847656 L 3.261719 -4.277344 L 1.230469 -4.277344 L 1.230469 -2.988281 C 1.308594 -2.996094 1.386719 -3.003906 1.460938 -3.007812 C 1.539062 -3.011719 1.605469 -3.015625 1.667969 -3.015625 C 1.917969 -3.015625 2.125 -2.992188 2.296875 -2.953125 C 2.46875 -2.910156 2.632812 -2.832031 2.792969 -2.710938 C 2.953125 -2.589844 3.078125 -2.4375 3.164062 -2.257812 C 3.25 -2.074219 3.289062 -1.835938 3.289062 -1.542969 Z "/>
</g>
<g id="glyph-0-4">
<path d="M 3.347656 0 L 0.355469 0 L 0.355469 -0.679688 C 0.570312 -0.882812 0.773438 -1.078125 0.964844 -1.265625 C 1.15625 -1.453125 1.339844 -1.648438 1.523438 -1.847656 C 1.890625 -2.253906 2.144531 -2.578125 2.277344 -2.824219 C 2.414062 -3.066406 2.480469 -3.320312 2.480469 -3.582031 C 2.480469 -3.714844 2.460938 -3.832031 2.417969 -3.933594 C 2.375 -4.039062 2.316406 -4.121094 2.242188 -4.1875 C 2.167969 -4.253906 2.078125 -4.304688 1.980469 -4.335938 C 1.878906 -4.367188 1.769531 -4.382812 1.648438 -4.382812 C 1.535156 -4.382812 1.417969 -4.371094 1.300781 -4.339844 C 1.183594 -4.3125 1.070312 -4.273438 0.960938 -4.230469 C 0.867188 -4.195312 0.78125 -4.148438 0.695312 -4.097656 C 0.613281 -4.046875 0.542969 -4 0.492188 -3.964844 L 0.457031 -3.964844 L 0.457031 -4.65625 C 0.589844 -4.722656 0.777344 -4.789062 1.015625 -4.851562 C 1.257812 -4.914062 1.484375 -4.949219 1.699219 -4.949219 C 2.152344 -4.949219 2.503906 -4.828125 2.761719 -4.589844 C 3.015625 -4.347656 3.144531 -4.023438 3.144531 -3.613281 C 3.144531 -3.425781 3.121094 -3.25 3.078125 -3.089844 C 3.035156 -2.929688 2.972656 -2.78125 2.894531 -2.644531 C 2.8125 -2.503906 2.71875 -2.363281 2.605469 -2.222656 C 2.492188 -2.085938 2.371094 -1.949219 2.246094 -1.8125 C 2.042969 -1.589844 1.816406 -1.363281 1.5625 -1.125 C 1.3125 -0.882812 1.113281 -0.695312 0.964844 -0.554688 L 3.347656 -0.554688 Z "/>
</g>
</g>
</defs>
<g fill="rgb(51.372549%, 75.686275%, 40.392157%)" fill-opacity="1">
<use xlink:href="#glyph-0-0" x="30" y="26.668945"/>
<use xlink:href="#glyph-0-1" x="34" y="26.668945"/>
<use xlink:href="#glyph-0-2" x="41" y="26.668945"/>
<use xlink:href="#glyph-0-3" x="43" y="26.668945"/>
<use xlink:href="#glyph-0-1" x="47" y="26.668945"/>
<use xlink:href="#glyph-0-2" x="54" y="26.668945"/>
<use xlink:href="#glyph-0-4" x="56" y="26.668945"/>
</g>
</svg>
