<?xml version="1.0" encoding="UTF-8"?>
<svg xmlns="http://www.w3.org/2000/svg" xmlns:xlink="http://www.w3.org/1999/xlink" width="854" height="480" viewBox="0 0 854 480">
<defs>
<g>
<g id="glyph-0-0">
<path d="M 4.582031 -4.058594 C 4.804688 -4.058594 5.042969 -4.066406 5.300781 -4.082031 L 5.300781 -3.652344 C 5.042969 -3.667969 4.804688 -3.675781 4.582031 -3.675781 L 3.53125 -3.675781 L 3.53125 -2.863281 L 4.894531 -2.863281 C 5.242188 -2.863281 5.554688 -2.871094 5.824219 -2.886719 L 5.824219 -2.433594 C 5.554688 -2.449219 5.242188 -2.457031 4.894531 -2.457031 L 1.410156 -2.457031 C 1.136719 -2.457031 0.820312 -2.441406 0.453125 -2.410156 L 0.453125 -2.886719 C 0.820312 -2.871094 1.136719 -2.863281 1.410156 -2.863281 L 1.648438 -2.863281 L 1.648438 -3.605469 C 1.648438 -3.890625 1.640625 -4.121094 1.625 -4.296875 L 2.125 -4.296875 C 2.109375 -4.089844 2.101562 -3.859375 2.101562 -3.605469 L 2.101562 -2.863281 L 3.078125 -2.863281 C 3.078125 -3.976562 3.070312 -4.648438 3.054688 -4.871094 L 3.554688 -4.871094 C 3.539062 -4.648438 3.53125 -4.375 3.53125 -4.058594 L 4.582031 -4.058594 M 3.554688 -2.292969 C 3.539062 -2.019531 3.53125 -1.765625 3.53125 -1.527344 L 3.53125 -0.429688 C 3.882812 -0.621094 4.210938 -0.867188 4.511719 -1.167969 C 4.8125 -1.472656 5.027344 -1.734375 5.15625 -1.957031 C 5.316406 -1.8125 5.472656 -1.703125 5.632812 -1.625 C 5.488281 -1.480469 5.320312 -1.304688 5.121094 -1.097656 C 4.921875 -0.890625 4.660156 -0.664062 4.332031 -0.417969 C 4.007812 -0.171875 3.585938 0.0390625 3.066406 0.214844 C 2.550781 0.390625 1.78125 0.523438 0.765625 0.621094 C 0.714844 0.460938 0.621094 0.300781 0.476562 0.144531 C 0.972656 0.144531 1.480469 0.101562 2.003906 0.0234375 C 2.53125 -0.0546875 2.886719 -0.152344 3.078125 -0.261719 L 3.078125 -1.527344 C 3.078125 -1.765625 3.070312 -2.019531 3.054688 -2.292969 L 3.554688 -2.292969 M 2.484375 -1.789062 C 2.277344 -1.613281 2.078125 -1.425781 1.886719 -1.21875 C 1.695312 -1.011719 1.410156 -0.730469 1.027344 -0.382812 C 0.898438 -0.507812 0.78125 -0.613281 0.667969 -0.691406 C 0.972656 -0.914062 1.246094 -1.164062 1.492188 -1.445312 C 1.738281 -1.722656 1.917969 -1.941406 2.027344 -2.101562 C 2.15625 -1.988281 2.308594 -1.886719 2.484375 -1.789062 Z "/>
</g>
<g id="glyph-0-1">
<path d="M 5.5625 -2.21875 C 5.449219 -2.378906 5.308594 -2.546875 5.132812 -2.722656 C 5.085938 -2.65625 5.019531 -2.582031 4.941406 -2.496094 C 4.863281 -2.40625 4.734375 -2.285156 4.558594 -2.125 C 4.449219 -2.21875 4.335938 -2.300781 4.226562 -2.363281 C 4.382812 -2.472656 4.503906 -2.570312 4.582031 -2.648438 C 4.664062 -2.730469 4.757812 -2.839844 4.871094 -2.984375 C 4.726562 -3.160156 4.535156 -3.332031 4.296875 -3.507812 C 4.359375 -3.589844 4.433594 -3.683594 4.511719 -3.796875 C 4.75 -3.589844 4.941406 -3.421875 5.085938 -3.292969 C 5.164062 -3.46875 5.234375 -3.722656 5.300781 -4.058594 L 5.058594 -4.058594 C 4.902344 -4.058594 4.710938 -4.050781 4.488281 -4.035156 L 4.488281 -4.320312 L 4.105469 -4.320312 L 4.105469 -2.792969 L 4.320312 -2.839844 L 4.320312 -2.53125 L 4.105469 -2.484375 L 4.105469 -2.125 L 3.699219 -2.125 L 3.699219 -2.410156 C 3.492188 -2.363281 3.269531 -2.308594 3.03125 -2.242188 C 2.792969 -2.179688 2.570312 -2.109375 2.363281 -2.027344 L 2.148438 -2.457031 C 2.402344 -2.492188 2.570312 -2.515625 2.648438 -2.53125 L 2.648438 -4.320312 C 2.492188 -4.320312 2.324219 -4.3125 2.148438 -4.296875 L 2.148438 -4.679688 C 2.339844 -4.664062 2.554688 -4.65625 2.792969 -4.65625 L 4.035156 -4.65625 C 4.257812 -4.65625 4.464844 -4.664062 4.65625 -4.679688 L 4.65625 -4.390625 L 5.800781 -4.390625 C 5.738281 -4.074219 5.675781 -3.824219 5.621094 -3.640625 C 5.566406 -3.457031 5.472656 -3.253906 5.347656 -3.03125 C 5.488281 -2.921875 5.671875 -2.746094 5.894531 -2.507812 C 5.785156 -2.425781 5.671875 -2.332031 5.5625 -2.21875 M 1.359375 -2.101562 L 1.503906 -4.152344 L 1.074219 -4.152344 C 0.835938 -4.152344 0.597656 -4.144531 0.359375 -4.128906 L 0.359375 -4.535156 C 0.597656 -4.519531 0.828125 -4.511719 1.050781 -4.511719 L 1.957031 -4.511719 C 1.925781 -4.320312 1.902344 -4.097656 1.886719 -3.84375 L 1.765625 -2.101562 L 2.125 -2.101562 C 2.09375 -1.878906 2.078125 -1.703125 2.078125 -1.574219 L 2.003906 -0.121094 C 1.988281 0.152344 1.902344 0.308594 1.742188 0.359375 C 1.582031 0.40625 1.390625 0.453125 1.167969 0.5 C 1.136719 0.34375 1.074219 0.175781 0.980469 0 C 1.25 0 1.421875 -0.015625 1.492188 -0.046875 C 1.5625 -0.078125 1.605469 -0.183594 1.625 -0.359375 L 1.671875 -1.742188 L 0.382812 -1.742188 C 0.398438 -1.871094 0.417969 -2.097656 0.441406 -2.421875 C 0.464844 -2.75 0.492188 -3.199219 0.523438 -3.769531 L 0.980469 -3.746094 C 0.929688 -3.445312 0.898438 -3.164062 0.882812 -2.898438 C 0.867188 -2.636719 0.851562 -2.371094 0.835938 -2.101562 L 1.359375 -2.101562 M 3.960938 -1.527344 C 3.738281 -1.496094 3.554688 -1.472656 3.414062 -1.457031 C 3.269531 -1.441406 3.03125 -1.410156 2.699219 -1.359375 C 2.648438 -1.503906 2.585938 -1.625 2.507812 -1.71875 C 2.921875 -1.734375 3.238281 -1.757812 3.460938 -1.789062 C 3.683594 -1.820312 3.898438 -1.855469 4.105469 -1.886719 C 4.3125 -1.917969 4.496094 -1.949219 4.65625 -1.980469 C 4.8125 -2.011719 4.972656 -2.0625 5.132812 -2.125 C 5.195312 -2.011719 5.292969 -1.878906 5.417969 -1.71875 C 5.242188 -1.71875 5.089844 -1.707031 4.953125 -1.683594 C 4.816406 -1.660156 4.628906 -1.632812 4.390625 -1.597656 C 4.457031 -1.34375 4.558594 -1.136719 4.703125 -0.980469 C 4.8125 -1.058594 4.90625 -1.140625 4.976562 -1.230469 C 5.046875 -1.316406 5.140625 -1.433594 5.25 -1.574219 C 5.378906 -1.464844 5.515625 -1.34375 5.65625 -1.21875 C 5.496094 -1.136719 5.367188 -1.0625 5.261719 -0.992188 C 5.160156 -0.917969 5.050781 -0.828125 4.941406 -0.714844 C 5.164062 -0.460938 5.457031 -0.269531 5.824219 -0.144531 C 5.695312 -0.046875 5.578125 0.0859375 5.464844 0.261719 C 5.242188 0.101562 5.035156 -0.0664062 4.84375 -0.25 C 4.65625 -0.433594 4.496094 -0.652344 4.367188 -0.90625 L 4.367188 -0.191406 C 4.367188 0.128906 4.375 0.390625 4.390625 0.597656 L 3.9375 0.597656 C 3.953125 0.390625 3.960938 0.128906 3.960938 -0.191406 L 3.960938 -0.644531 C 3.769531 -0.4375 3.550781 -0.207031 3.304688 0.046875 C 3.058594 0.300781 2.816406 0.507812 2.578125 0.667969 C 2.464844 0.507812 2.347656 0.390625 2.21875 0.308594 C 2.539062 0.183594 2.820312 -0.00390625 3.066406 -0.25 C 3.3125 -0.496094 3.523438 -0.765625 3.699219 -1.050781 C 3.761719 -0.972656 3.851562 -0.890625 3.960938 -0.8125 L 3.960938 -1.527344 M 2.125 -0.5 C 2.300781 -0.582031 2.460938 -0.683594 2.613281 -0.8125 C 2.765625 -0.9375 2.921875 -1.105469 3.078125 -1.3125 C 3.175781 -1.203125 3.277344 -1.097656 3.390625 -1.003906 C 3.230469 -0.875 3.074219 -0.738281 2.925781 -0.597656 C 2.773438 -0.453125 2.609375 -0.308594 2.433594 -0.167969 C 2.324219 -0.292969 2.21875 -0.40625 2.125 -0.5 M 1.359375 -0.882812 C 1.21875 -0.835938 1.042969 -0.765625 0.835938 -0.667969 C 0.628906 -0.574219 0.476562 -0.492188 0.382812 -0.429688 C 0.316406 -0.621094 0.253906 -0.773438 0.191406 -0.882812 C 0.398438 -0.945312 0.601562 -1.015625 0.800781 -1.085938 C 1 -1.15625 1.183594 -1.234375 1.359375 -1.3125 L 1.359375 -0.882812 M 3.699219 -3.222656 L 3.699219 -3.605469 L 3.03125 -3.605469 L 3.03125 -3.222656 L 3.699219 -3.222656 M 3.699219 -3.9375 L 3.699219 -4.320312 L 3.03125 -4.320312 L 3.03125 -3.9375 L 3.699219 -3.9375 M 3.699219 -2.722656 L 3.699219 -2.914062 L 3.03125 -2.914062 L 3.03125 -2.601562 Z "/>
</g>
<g id="glyph-1-0">
</g>
<g id="glyph-1-1">
<path d="M 3.089844 -2.222656 C 3.089844 -1.425781 2.972656 -0.839844 2.742188 -0.46875 C 2.507812 -0.09375 2.152344 0.09375 1.667969 0.09375 C 1.179688 0.09375 0.820312 -0.0976562 0.589844 -0.476562 C 0.363281 -0.855469 0.246094 -1.4375 0.246094 -2.21875 C 0.246094 -3.019531 0.363281 -3.605469 0.59375 -3.976562 C 0.828125 -4.347656 1.183594 -4.53125 1.667969 -4.53125 C 2.15625 -4.53125 2.515625 -4.339844 2.746094 -3.957031 C 2.972656 -3.574219 3.089844 -2.996094 3.089844 -2.222656 M 2.324219 -0.867188 C 2.382812 -1.015625 2.421875 -1.203125 2.445312 -1.425781 C 2.46875 -1.652344 2.484375 -1.917969 2.484375 -2.222656 C 2.484375 -2.527344 2.46875 -2.792969 2.445312 -3.015625 C 2.421875 -3.242188 2.382812 -3.429688 2.320312 -3.578125 C 2.261719 -3.730469 2.179688 -3.84375 2.074219 -3.921875 C 1.972656 -4 1.835938 -4.039062 1.667969 -4.039062 C 1.503906 -4.039062 1.367188 -4 1.261719 -3.921875 C 1.152344 -3.84375 1.070312 -3.726562 1.007812 -3.570312 C 0.949219 -3.421875 0.90625 -3.230469 0.886719 -3 C 0.863281 -2.769531 0.851562 -2.507812 0.851562 -2.21875 C 0.851562 -1.90625 0.863281 -1.648438 0.882812 -1.4375 C 0.902344 -1.230469 0.941406 -1.042969 1.003906 -0.878906 C 1.0625 -0.722656 1.144531 -0.605469 1.25 -0.523438 C 1.359375 -0.441406 1.496094 -0.398438 1.667969 -0.398438 C 1.832031 -0.398438 1.96875 -0.4375 2.074219 -0.519531 C 2.179688 -0.597656 2.265625 -0.714844 2.324219 -0.867188 Z "/>
</g>
<g id="glyph-1-2">
<path d="M 2.171875 -4.644531 L 0.433594 0.964844 L -0.0703125 0.964844 L 1.660156 -4.644531 Z "/>
</g>
</g>
</defs>
<g fill="rgb(100%, 100%, 100%)" fill-opacity="1">
<use xlink:href="#glyph-0-0" x="30" y="26.388672"/>
<use xlink:href="#glyph-0-1" x="36" y="26.388672"/>
</g>
<g fill="rgb(100%, 100%, 100%)" fill-opacity="1">
<use xlink:href="#glyph-1-0" x="42" y="26.113281"/>
<use xlink:href="#glyph-1-1" x="44" y="26.113281"/>
<use xlink:href="#glyph-1-2" x="47" y="26.113281"/>
<use xlink:href="#glyph-1-1" x="49" y="26.113281"/>
</g>
</svg>
